:version 1.10
:name ASF
:units
  mass 1
  length 1
  angle deg
:documentation
  ASF file generated by Kaydara
:root
  axis xyz
  order  tx ty tz rx ry rz
  position 0 0 0
  orientation 0 0 0
:bonedata
  begin
    id 1
    name RightUpLegDummy
    direction -0.718183 -0.695806 0.00816078
    length 4.904
    axis 0 0 0 xyz
  end
  begin
    id 2
    name RightUpLeg
    direction -0.0736652 -0.994202 0.0783343
    length 17.4976
    axis -2.72909 -3.00389 -4.00133 xyz
    dof rx ry rz
  end
  begin
    id 3
    name RightLeg
    direction -0.0389037 -0.994596 -0.0962598
    length 16.5821
    axis 3.95836 -18.5909 -4.46993 xyz
    dof rx ry rz
  end
  begin
    id 4
    name RightFoot
    direction -0.311643 -0.412678 0.855906
    length 3.77069
    axis -1.99483 -18.8351 -3.27644 xyz
    dof rx ry rz
  end
  begin
    id 5
    name RightToes
    direction -0.317852 0.0389852 0.947339
    length 3.85082
    axis -2.00228 -18.1713 -3.25211 xyz
    dof rx ry rz
  end
  begin
    id 6
    name SpineDummy
    direction 8.3039e-015 1 4.44677e-016
    length 4.6813
    axis 0 0 0 xyz
  end
  begin
    id 7
    name Spine
    direction -0.000262373 0.999988 0.00493267
    length 10.1015
    axis -0.00246081 0.00062579 0.0150362 xyz
    dof rx ry rz
  end
  begin
    id 8
    name Spine1
    direction 0 0 0
    length 0
    axis -0.00349562 0.000650293 0.0196666 xyz
    dof rx ry rz
  end
  begin
    id 9
    name HEadDummy
    direction -0.000343232 0.999999 0.00123745
    length 3.43865
    axis -0.00349562 0.000650293 0.0196666 xyz
  end
  begin
    id 10
    name HEad
    direction -0.0461221 0.980933 0.188796
    length 5.12695
    axis -0.00351404 -7.04812 0.0199272 xyz
    dof rx ry rz
  end
  begin
    id 11
    name LeftShoulder1Dummy
    direction 0.998904 -0.0399089 -0.0244534
    length 3.5433
    axis -0.00349562 0.000650293 0.0196666 xyz
  end
  begin
    id 12
    name LeftShoulder1
    direction 0.99951 1.64443e-005 0.0312999
    length 4.05031
    axis -0.00349562 0.000650293 0.0196666 xyz
    dof rx ry rz
  end
  begin
    id 13
    name LeftArm
    direction 0.984791 0.0515299 0.165927
    length 12.9126
    axis -64.823 -10.7743 5.20463 xyz
    dof rx ry rz
  end
  begin
    id 14
    name LeftForeArm
    direction 0.984968 0.0534808 0.16425
    length 10.8596
    axis -30.0462 -7.70601 1.87451 xyz
    dof rx ry rz
  end
  begin
    id 15
    name LeftHand
    direction 0.975871 0.0289682 0.216418
    length 6.62295
    axis -20.1348 -6.98077 1.86072 xyz
    dof rx ry rz
  end
  begin
    id 16
    name RightShoulderDummy
    direction -0.998877 -0.0405946 -0.0244307
    length 3.5433
    axis -0.00349562 0.000650293 0.0196666 xyz
  end
  begin
    id 17
    name RightShoulder
    direction -0.998933 -0.0249743 -0.0388558
    length 4.05031
    axis -0.0205316 -4.02113 1.41395 xyz
    dof rx ry rz
  end
  begin
    id 18
    name RightArm
    direction -0.997559 0.068664 0.0127103
    length 12.9638
    axis -67.3882 1.84188 -6.15987 xyz
    dof rx ry rz
  end
  begin
    id 19
    name RightForeArm
    direction -0.991508 0.0912848 0.0926241
    length 10.8312
    axis -22.1975 3.41087 -4.28711 xyz
    dof rx ry rz
  end
  begin
    id 20
    name RightHand
    direction -0.989262 0.0600788 0.133232
    length 6.57864
    axis -12.2911 2.17515 -4.39675 xyz
    dof rx ry rz
  end
  begin
    id 21
    name LeftUpLegDummy
    direction 0.718183 -0.695806 0.00816078
    length 4.904
    axis 0 0 0 xyz
  end
  begin
    id 22
    name LeftUpLeg
    direction 0.0831398 -0.99469 0.0606531
    length 17.4976
    axis -1.71016 2.29552 4.63832 xyz
    dof rx ry rz
  end
  begin
    id 23
    name LeftLeg
    direction 0.0498442 -0.991778 -0.117862
    length 16.5821
    axis 5.13757 15.5727 5.13348 xyz
    dof rx ry rz
  end
  begin
    id 24
    name LeftFoot
    direction 0.269026 -0.433896 0.85986
    length 3.77069
    axis -0.576502 15.6961 4.10267 xyz
    dof rx ry rz
  end
  begin
    id 25
    name LeftToes
    direction 0.277311 0.0251143 0.960452
    length 3.85048
    axis -0.576502 15.6961 4.10267 xyz
    dof rx ry rz
  end
:hierarchy
  begin
    root RightUpLegDummy SpineDummy LeftUpLegDummy
    RightUpLegDummy RightUpLeg
    RightUpLeg RightLeg
    RightLeg RightFoot
    RightFoot RightToes
    SpineDummy Spine
    Spine Spine1
    Spine1 HEadDummy LeftShoulder1Dummy RightShoulderDummy
    HEadDummy HEad
    LeftShoulder1Dummy LeftShoulder1
    LeftShoulder1 LeftArm
    LeftArm LeftForeArm
    LeftForeArm LeftHand
    RightShoulderDummy RightShoulder
    RightShoulder RightArm
    RightArm RightForeArm
    RightForeArm RightHand
    LeftUpLegDummy LeftUpLeg
    LeftUpLeg LeftLeg
    LeftLeg LeftFoot
    LeftFoot LeftToes
  end

:SAMPLES-PER-SECOND 30
:FULLY-SPECIFIED
:DEGREES
76
root  2.3005 17.6464 -72.1193 39.5107 7.17421 -5.872
RightUpLeg  -82.1375 -7.5013 21.2118
RightLeg  128.592 34.8734 -21.1103
RightFoot  -43.7769 8.06408 28.3996
RightToes  5.82077e-011 -3.18055e-015 -2.98177e-016
Spine  38.1983 0.514198 11.6544
Spine1  6.29902 4.28831 2.91457
HEad  -16.251 -10.904 0.157147
LeftShoulder1  -3.88251e-019 9.70628e-020 -3.87848e-018
LeftArm  -6.21448 -13.5957 -76.2476
LeftForeArm  17.6194 -8.25237 -6.87981
LeftHand  -11.7714 -10.2762 76.383
RightShoulder  3.675 8.33191 18.1316
RightArm  8.5859 30.5307 50.3654
RightForeArm  -1.32714 16.5345 -7.51532
RightHand  -6.74209 6.63632 -58.9052
LeftUpLeg  -54.6815 -4.72838 18.2014
LeftLeg  132.143 -12.0716 -1.00723
LeftFoot  -43.1642 -7.93122 -28.5112
LeftToes  9.37148e-011 4.50685e-012 -4.11107e-011
77
root  1.88952 17.7949 -71.411 39.172 9.60958 -5.20664
RightUpLeg  -78.1538 -8.41606 21.8197
RightLeg  128.39 34.1769 -20.5804
RightFoot  -44.3177 7.7981 26.989
RightToes  5.82077e-011 -3.18055e-015 -2.98177e-016
Spine  37.4866 0.00833733 11.1849
Spine1  7.7744 3.05595 5.139
HEad  -16.777 -10.3187 0.871947
LeftShoulder1  -3.88251e-019 9.70628e-020 -3.87848e-018
LeftArm  -6.63178 -12.952 -75.2761
LeftForeArm  18.1715 -7.34217 -7.01232
LeftHand  -12.3551 -10.5765 78.0042
RightShoulder  3.93592 8.59472 19.3148
RightArm  7.92631 29.9723 52.248
RightForeArm  0.436737 16.0891 -7.60639
RightHand  -7.4126 7.06636 -61.9161
LeftUpLeg  -53.5317 -5.99011 19.965
LeftLeg  129.898 -12.5275 -0.604258
LeftFoot  -42.481 -7.92185 -29.148
LeftToes  9.37148e-011 4.50685e-012 -4.11107e-011
78
root  1.48688 17.9156 -70.7609 39.2262 11.9335 -4.31528
RightUpLeg  -75.1751 -9.63069 22.6233
RightLeg  128.038 33.5711 -20.212
RightFoot  -44.6241 7.31738 25.0885
RightToes  5.82077e-011 -3.18055e-015 -2.98177e-016
Spine  36.9609 -0.68406 10.5342
Spine1  8.38221 1.59951 6.94419
HEad  -17.2429 -9.43415 1.79948
LeftShoulder1  -3.88251e-019 9.70628e-020 -3.87848e-018
LeftArm  -6.97724 -11.8831 -73.8023
LeftForeArm  18.2153 -6.87895 -7.13645
LeftHand  -13.0439 -10.8726 80.0271
RightShoulder  3.97311 8.54579 19.6294
RightArm  7.21117 28.6803 54.6283
RightForeArm  1.65565 15.8941 -7.87413
RightHand  -8.03605 7.61092 -63.8875
LeftUpLeg  -52.838 -7.13439 21.3114
LeftLeg  127.546 -13.0851 -0.00270836
LeftFoot  -42.1693 -8.06493 -29.9794
LeftToes  9.37148e-011 4.50685e-012 -4.11107e-011
79
root  1.09133 18.0097 -70.1837 39.3061 14.1537 -3.2315
RightUpLeg  -72.7813 -11.4028 23.8233
RightLeg  127.364 33.2797 -20.3286
RightFoot  -44.8508 6.94657 23.6487
RightToes  5.82077e-011 -3.18055e-015 -2.98177e-016
Spine  36.541 -1.40201 9.71211
Spine1  8.65899 0.119925 8.46676
HEad  -17.0925 -8.60866 2.87925
LeftShoulder1  -3.88251e-019 9.70628e-020 -3.87848e-018
LeftArm  -7.24973 -10.6502 -72.303
LeftForeArm  18.6298 -6.44173 -7.25562
LeftHand  -13.3301 -10.981 80.8747
RightShoulder  3.87135 8.44744 19.1697
RightArm  7.76379 27.379 56.5147
RightForeArm  1.52154 15.3203 -7.12524
RightHand  -8.36513 7.88892 -64.8691
LeftUpLeg  -52.24 -8.37256 22.5869
LeftLeg  125.304 -13.408 0.392469
LeftFoot  -42.1331 -8.1018 -30.1512
LeftToes  9.37148e-011 4.50685e-012 -4.11107e-011
80
root  0.685878 18.0398 -69.6585 39.5991 15.907 -2.05024
RightUpLeg  -70.9813 -13.2105 25.2851
RightLeg  126.451 33.3455 -20.9468
RightFoot  -45.2033 6.92971 23.3197
RightToes  5.82077e-011 -3.18055e-015 -2.98177e-016
Spine  35.6838 -1.79328 8.66097
Spine1  9.31404 -1.10529 9.77831
HEad  -16.7327 -8.19653 3.98658
LeftShoulder1  -3.88251e-019 9.70628e-020 -3.87848e-018
LeftArm  -7.7301 -9.63931 -71.2348
LeftForeArm  19.5979 -5.76825 -7.24823
LeftHand  -13.2061 -10.8488 80.8122
RightShoulder  3.8836 8.54272 19.0775
RightArm  8.27153 26.5555 57.8905
RightForeArm  1.66879 14.0911 -5.73037
RightHand  -8.61289 7.90253 -66.3409
LeftUpLeg  -51.7609 -9.3317 23.7378
LeftLeg  123.324 -13.4445 0.439381
LeftFoot  -42.1381 -7.9844 -29.7212
LeftToes  9.37148e-011 4.50685e-012 -4.11107e-011
81
root  0.279905 18.0186 -69.1727 39.9548 17.1144 -0.9947
RightUpLeg  -69.7008 -14.7456 26.953
RightLeg  125.356 33.8222 -22.1162
RightFoot  -45.4425 7.04614 23.5291
RightToes  5.82077e-011 -3.18055e-015 -2.98177e-016
Spine  34.7845 -1.91393 7.45751
Spine1  10.1156 -2.05345 10.8985
HEad  -16.6995 -7.98657 4.80602
LeftShoulder1  -3.88251e-019 9.70628e-020 -3.87848e-018
LeftArm  -8.39083 -8.62123 -70.3821
LeftForeArm  20.4038 -5.34068 -7.02746
LeftHand  -13.0164 -10.6129 80.8415
RightShoulder  4.07537 8.74323 19.9105
RightArm  8.13664 25.8451 59.1191
RightForeArm  2.55303 13.1321 -4.9984
RightHand  -8.87563 7.88124 -68.0215
LeftUpLeg  -51.2908 -9.86097 24.7276
LeftLeg  121.682 -13.3515 0.2944
LeftFoot  -41.9564 -7.77989 -29.1638
LeftToes  9.37148e-011 4.50685e-012 -4.11107e-011
82
root  -0.0519913 18.0098 -68.7438 39.8092 18.0915 -0.359062
RightUpLeg  -68.5961 -16.2768 28.5916
RightLeg  124.361 34.4336 -23.3953
RightFoot  -45.1244 6.75554 22.79
RightToes  5.82077e-011 -3.18055e-015 -2.98177e-016
Spine  34.7906 -2.35971 6.8761
Spine1  10.3907 -2.78184 11.1179
HEad  -16.9949 -7.62944 5.19662
LeftShoulder1  -3.88251e-019 9.70628e-020 -3.87848e-018
LeftArm  -8.77333 -7.34451 -69.314
LeftForeArm  20.7039 -5.52226 -6.75308
LeftHand  -12.9675 -10.5139 80.989
RightShoulder  4.25657 8.85443 20.819
RightArm  7.76732 24.9209 60.5009
RightForeArm  3.51357 12.6197 -4.91945
RightHand  -9.11422 7.98937 -69.0104
LeftUpLeg  -50.4802 -10.3385 25.6319
LeftLeg  120.332 -13.3365 0.260116
LeftFoot  -41.6227 -7.6055 -28.8639
LeftToes  9.37148e-011 4.50685e-012 -4.11107e-011
83
root  -0.274475 18.0176 -68.386 39.4874 18.6503 -0.257157
RightUpLeg  -67.7925 -17.2909 29.7901
RightLeg  123.846 34.7909 -24.1143
RightFoot  -44.3498 6.02237 20.8433
RightToes  5.82077e-011 -3.18055e-015 -2.98177e-016
Spine  35.3603 -3.13948 7.12294
Spine1  10.1398 -3.1582 10.0169
HEad  -17.3481 -7.04088 5.36472
LeftShoulder1  -3.88251e-019 9.70628e-020 -3.87848e-018
LeftArm  -8.80684 -6.10025 -67.9872
LeftForeArm  21.0037 -5.91597 -6.58662
LeftHand  -13.0611 -10.651 80.8983
RightShoulder  4.2613 8.85547 20.8448
RightArm  7.15943 24.0092 62.3381
RightForeArm  4.38811 11.4866 -4.68308
RightHand  -9.45815 8.30902 -69.7395
LeftUpLeg  -49.4452 -10.5047 26.3222
LeftLeg  119.175 -13.4576 0.453855
LeftFoot  -41.3219 -7.59704 -29.1423
LeftToes  9.37148e-011 4.50685e-012 -4.11107e-011
